<?xml version="1.0" encoding="utf-8"?>
<!-- Svg Vector Icons : http://www.onlinewebfonts.com/icon -->
<!DOCTYPE svg PUBLIC "-//W3C//DTD SVG 1.1//EN" "http://www.w3.org/Graphics/SVG/1.1/DTD/svg11.dtd">
<svg version="1.1" xmlns="http://www.w3.org/2000/svg" xmlns:xlink="http://www.w3.org/1999/xlink" x="0px" y="0px" viewBox="0 0 1000 1000" enable-background="new 0 0 1000 1000" xml:space="preserve">
<metadata> Svg Vector Icons : http://www.onlinewebfonts.com/icon </metadata>
<g><path d="M500,990c270.6,0,490-219.4,490-490S770.6,10,500,10S10,229.4,10,500S229.4,990,500,990z M264.9,558.3l211.9-211.9c6.4-6.4,14.8-9.5,23.2-9.5s16.8,3.1,23.2,9.5l211.9,211.9c12.7,12.7,12.7,33.5,0,46.2c-12.7,12.7-33.5,12.7-46.2,0L500,415.7L311.1,604.5c-12.7,12.7-33.5,12.7-46.2,0C252.2,591.8,252.2,571.1,264.9,558.3z"/></g>
</svg>