<svg width="38" height="31" viewBox="0 0 38 31" fill="none" xmlns="http://www.w3.org/2000/svg">
<mask id="path-1-inside-1_1018_183" fill="white">
<path d="M22.6826 2.13805C20.5282 0.410616 17.0281 0.401621 14.8648 2.11796L1.917 12.3909C-0.246252 14.1072 -0.253425 16.8989 1.90097 18.6264L15.0711 29.1864C17.2255 30.9139 20.7257 30.9229 22.8889 29.2065L35.8368 18.9336C38 17.2173 38.0072 14.4255 35.8528 12.6981L22.6826 2.13805Z"/>
</mask>
<path d="M22.6826 2.13805C20.0973 0.0651283 15.8972 0.054336 13.3013 2.11394L1.13682 11.7653C-1.45908 13.8249 -1.46769 17.175 1.11759 19.2479L2.68436 18.0048C0.960836 16.6229 0.966575 14.3895 2.69717 13.0164L15.645 2.74352C17.8083 1.02718 20.9591 0.756101 22.6826 2.13805ZM18.972 32.3142L39.7537 15.8259L18.972 32.3142ZM39.7537 15.8259L18.7817 -0.989746L39.7537 15.8259ZM1.13682 11.7653C-1.45908 13.8249 -1.46769 17.175 1.11759 19.2479L13.5076 29.1824C16.0929 31.2553 20.293 31.2661 22.8889 29.2065C21.1583 30.5796 18.0089 30.2923 15.8545 28.5649L2.68436 18.0048C0.960836 16.6229 0.966575 14.3895 2.69717 13.0164L1.13682 11.7653Z" fill="#D9D9D9" mask="url(#path-1-inside-1_1018_183)"/>
</svg>
