<svg width="38" height="31" viewBox="0 0 38 31" fill="none" xmlns="http://www.w3.org/2000/svg">
<mask id="path-1-inside-1_1018_184" fill="white">
<path d="M15.311 2.13805C17.4654 0.410616 20.9656 0.401621 23.1288 2.11796L36.0767 12.3909C38.2399 14.1072 38.2471 16.8989 36.0927 18.6264L22.9225 29.1864C20.7681 30.9139 17.268 30.9229 15.1047 29.2065L2.15689 18.9336C-0.00636233 17.2173 -0.013535 14.4255 2.14086 12.6981L15.311 2.13805Z"/>
</mask>
<path d="M15.311 2.13805C17.8963 0.0651283 22.0965 0.054336 24.6924 2.11394L36.8568 11.7653C39.4527 13.8249 39.4613 17.175 36.8761 19.2479L35.3093 18.0048C37.0328 16.6229 37.0271 14.3895 35.2965 13.0164L22.3486 2.74352C20.1854 1.02718 17.0345 0.756101 15.311 2.13805ZM19.0216 32.3142L-1.76002 15.8259L19.0216 32.3142ZM-1.76002 15.8259L19.2119 -0.989746L-1.76002 15.8259ZM36.8568 11.7653C39.4527 13.8249 39.4613 17.175 36.8761 19.2479L24.4861 29.1824C21.9008 31.2553 17.7006 31.2661 15.1047 29.2065C16.8353 30.5796 19.9847 30.2923 22.1391 28.5649L35.3093 18.0048C37.0328 16.6229 37.0271 14.3895 35.2965 13.0164L36.8568 11.7653Z" fill="#D9D9D9" mask="url(#path-1-inside-1_1018_184)"/>
</svg>
