<svg width="435" height="532" viewBox="0 0 435 532" fill="none" xmlns="http://www.w3.org/2000/svg">
<ellipse cx="190.526" cy="124.027" rx="190.526" ry="124.027" transform="matrix(-0.0111494 -0.999938 0.999935 -0.0114319 4.24902 434.028)" fill="url(#paint0_radial_1159_198)" fill-opacity="0.37"/>
<ellipse cx="115.806" cy="25.694" rx="115.806" ry="25.694" transform="matrix(-0.92711 -0.374789 0.366786 -0.930305 371.26 357.762)" fill="url(#paint1_radial_1159_198)" fill-opacity="0.37"/>
<g style="mix-blend-mode:hard-light" filter="url(#filter0_f_1159_198)">
<path d="M138.829 155.464H174.126C175.807 155.254 179.673 155.212 181.69 156.724C184.211 158.615 186.732 158.616 189.253 159.246C191.774 159.876 205.011 159.245 205.641 156.724C206.145 154.708 207.532 156.725 208.162 157.985L201.859 163.028C201.229 164.288 197.825 166.053 189.253 163.028C180.681 160.002 175.597 159.246 174.126 159.246C173.706 159.666 173.496 160.759 176.017 161.767C178.538 162.776 184.631 164.709 187.362 165.549C190.514 166.389 197.825 168.448 201.859 169.961C205.893 171.474 212.364 170.591 215.096 169.961C214.675 171.222 213.457 173.743 211.944 173.743C210.053 173.743 209.423 177.525 196.187 173.743C185.598 170.718 186.732 171.222 188.623 171.852C184.001 170.591 174.252 167.566 172.235 165.549C169.714 163.028 158.369 166.81 141.981 161.767C128.871 157.733 128.534 158.406 130.005 159.246L126.854 157.985C127.274 158.826 127.863 160.759 126.854 161.767C125.846 162.776 124.753 164.709 124.333 165.549V173.743C130.846 176.054 144.755 182.945 148.284 192.022L153.957 197.694L204.381 237.403C205.221 239.084 206.649 242.572 205.641 243.076C204.633 243.58 209.423 247.068 211.944 248.749C212.365 249.799 212.702 252.026 210.684 252.53C208.667 253.035 245.14 272.07 263.629 281.524L296.405 296.021C307.33 300.854 329.433 309.888 330.441 307.367C331.45 304.845 330.861 310.518 330.441 313.67C327.71 313.67 317.583 311.905 298.926 304.845C280.269 297.786 270.563 292.239 268.041 290.349L228.963 270.179L207.533 258.203L204.381 263.876L203.121 255.682L198.078 254.421L194.296 258.833H182.951L173.496 268.918C165.933 267.448 148.41 257.447 138.83 229.209V240.555H127.485V243.076H131.266L131.897 248.118L133.788 251.27L135.678 254.421L136.939 252.53V248.749H138.83V252.53L142.612 254.421L140.721 256.943L138.83 258.203V260.724L140.721 263.876L142.612 266.397H157.109V270.179H150.175V273.33C162.361 276.902 189.254 284.172 199.339 284.676V290.349C193.036 290.138 175.135 288.205 153.957 282.155C151.436 282.995 146.394 285.81 146.394 290.349C145.973 295.181 146.898 309.131 153.957 326.276L182.951 387.415" stroke="#FF5C00" stroke-width="0.65"/>
</g>
<g style="mix-blend-mode:hard-light" filter="url(#filter1_f_1159_198)">
<path d="M138.829 155.464H174.126C175.807 155.254 179.673 155.212 181.69 156.724C184.211 158.615 186.732 158.616 189.253 159.246C191.774 159.876 205.011 159.245 205.641 156.724C206.145 154.708 207.532 156.725 208.162 157.985L201.859 163.028C201.229 164.288 197.825 166.053 189.253 163.028C180.681 160.002 175.597 159.246 174.126 159.246C173.706 159.666 173.496 160.759 176.017 161.767C178.538 162.776 184.631 164.709 187.362 165.549C190.514 166.389 197.825 168.448 201.859 169.961C205.893 171.474 212.364 170.591 215.096 169.961C214.675 171.222 213.457 173.743 211.944 173.743C210.053 173.743 209.423 177.525 196.187 173.743C185.598 170.718 186.732 171.222 188.623 171.852C184.001 170.591 174.252 167.566 172.235 165.549C169.714 163.028 158.369 166.81 141.981 161.767C128.871 157.733 128.534 158.406 130.005 159.246L126.854 157.985C127.274 158.826 127.863 160.759 126.854 161.767C125.846 162.776 124.753 164.709 124.333 165.549V173.743C130.846 176.054 144.755 182.945 148.284 192.022L153.957 197.694L204.381 237.403C205.221 239.084 206.649 242.572 205.641 243.076C204.633 243.58 209.423 247.068 211.944 248.749C212.365 249.799 212.702 252.026 210.684 252.53C208.667 253.035 245.14 272.07 263.629 281.524L296.405 296.021C307.33 300.854 329.433 309.888 330.441 307.367C331.45 304.845 330.861 310.518 330.441 313.67C327.71 313.67 317.583 311.905 298.926 304.845C280.269 297.786 270.563 292.239 268.041 290.349L228.963 270.179L207.533 258.203L204.381 263.876L203.121 255.682L198.078 254.421L194.296 258.833H182.951L173.496 268.918C165.933 267.448 148.41 257.447 138.83 229.209V240.555H127.485V243.076H131.266L131.897 248.118L133.788 251.27L135.678 254.421L136.939 252.53V248.749H138.83V252.53L142.612 254.421L140.721 256.943L138.83 258.203V260.724L140.721 263.876L142.612 266.397H157.109V270.179H150.175V273.33C162.361 276.902 189.254 284.172 199.339 284.676V290.349C193.036 290.138 175.135 288.205 153.957 282.155C151.436 282.995 146.394 285.81 146.394 290.349C145.973 295.181 146.898 309.131 153.957 326.276L182.951 387.415" stroke="#FF0000" stroke-width="0.85"/>
</g>
<g style="mix-blend-mode:hard-light" filter="url(#filter2_ddi_1159_198)">
<path d="M138.829 155.464H174.126C175.807 155.254 179.673 155.212 181.69 156.724C184.211 158.615 186.732 158.616 189.253 159.246C191.774 159.876 205.011 159.245 205.641 156.724C206.145 154.708 207.532 156.725 208.162 157.985L201.859 163.028C201.229 164.288 197.825 166.053 189.253 163.028C180.681 160.002 175.597 159.246 174.126 159.246C173.706 159.666 173.496 160.759 176.017 161.767C178.538 162.776 184.631 164.709 187.362 165.549C190.514 166.389 197.825 168.448 201.859 169.961C205.893 171.474 212.364 170.591 215.096 169.961C214.675 171.222 213.457 173.743 211.944 173.743C210.053 173.743 209.423 177.525 196.187 173.743C185.598 170.718 186.732 171.222 188.623 171.852C184.001 170.591 174.252 167.566 172.235 165.549C169.714 163.028 158.369 166.81 141.981 161.767C128.871 157.733 128.534 158.406 130.005 159.246L126.854 157.985C127.274 158.826 127.863 160.759 126.854 161.767C125.846 162.776 124.753 164.709 124.333 165.549V173.743C130.846 176.054 144.755 182.945 148.284 192.022L153.957 197.694L204.381 237.403C205.221 239.084 206.649 242.572 205.641 243.076C204.633 243.58 209.423 247.068 211.944 248.749C212.365 249.799 212.702 252.026 210.684 252.53C208.667 253.035 245.14 272.07 263.629 281.524L296.405 296.021C307.33 300.854 329.433 309.888 330.441 307.367C331.45 304.845 330.861 310.518 330.441 313.67C327.71 313.67 317.583 311.905 298.926 304.845C280.269 297.786 270.563 292.239 268.041 290.349L228.963 270.179L207.533 258.203L204.381 263.876L203.121 255.682L198.078 254.421L194.296 258.833H182.951L173.496 268.918C165.933 267.448 148.41 257.447 138.83 229.209V240.555H127.485V243.076H131.266L131.897 248.118L133.788 251.27L135.678 254.421L136.939 252.53V248.749H138.83V252.53L142.612 254.421L140.721 256.943L138.83 258.203V260.724L140.721 263.876L142.612 266.397H157.109V270.179H150.175V273.33C162.361 276.902 189.254 284.172 199.339 284.676V290.349C193.036 290.138 175.135 288.205 153.957 282.155C151.436 282.995 146.394 285.81 146.394 290.349C145.973 295.181 146.898 309.131 153.957 326.276L182.951 387.415" stroke="#FF0000" stroke-opacity="0.2" stroke-width="0.65"/>
</g>
<g filter="url(#filter3_f_1159_198)">
<path d="M138.829 155.464H174.126C175.807 155.254 179.673 155.212 181.69 156.724C184.211 158.615 186.732 158.616 189.253 159.246C191.774 159.876 205.011 159.245 205.641 156.724C206.145 154.708 207.532 156.725 208.162 157.985L201.859 163.028C201.229 164.288 197.825 166.053 189.253 163.028C180.681 160.002 175.597 159.246 174.126 159.246C173.706 159.666 173.496 160.759 176.017 161.767C178.538 162.776 184.631 164.709 187.362 165.549C190.514 166.389 197.825 168.448 201.859 169.961C205.893 171.474 212.364 170.591 215.096 169.961C214.675 171.222 213.457 173.743 211.944 173.743C210.053 173.743 209.423 177.525 196.187 173.743C185.598 170.718 186.732 171.222 188.623 171.852C184.001 170.591 174.252 167.566 172.235 165.549C169.714 163.028 158.369 166.81 141.981 161.767C128.871 157.733 128.534 158.406 130.005 159.246L126.854 157.985C127.274 158.826 127.863 160.759 126.854 161.767C125.846 162.776 124.753 164.709 124.333 165.549V173.743C130.846 176.054 144.755 182.945 148.284 192.022L153.957 197.694L204.381 237.403C205.221 239.084 206.649 242.572 205.641 243.076C204.633 243.58 209.423 247.068 211.944 248.749C212.365 249.799 212.702 252.026 210.684 252.53C208.667 253.035 245.14 272.07 263.629 281.524L296.405 296.021C307.33 300.854 329.433 309.888 330.441 307.367C331.45 304.845 330.861 310.518 330.441 313.67C327.71 313.67 317.583 311.905 298.926 304.845C280.269 297.786 270.563 292.239 268.041 290.349L228.963 270.179L207.533 258.203L204.381 263.876L203.121 255.682L198.078 254.421L194.296 258.833H182.951L173.496 268.918C165.933 267.448 148.41 257.447 138.83 229.209V240.555H127.485V243.076H131.266L131.897 248.118L133.788 251.27L135.678 254.421L136.939 252.53V248.749H138.83V252.53L142.612 254.421L140.721 256.943L138.83 258.203V260.724L140.721 263.876L142.612 266.397H157.109V270.179H150.175V273.33C162.361 276.902 189.254 284.172 199.339 284.676V290.349C193.036 290.138 175.135 288.205 153.957 282.155C151.436 282.995 146.394 285.81 146.394 290.349C145.973 295.181 146.898 309.131 153.957 326.276L182.951 387.415" stroke="#FF9983" stroke-width="0.4"/>
</g>
<g filter="url(#filter4_f_1159_198)">
<path d="M138.829 155.464H174.126C175.807 155.254 179.673 155.212 181.69 156.724C184.211 158.615 186.732 158.616 189.253 159.246C191.774 159.876 205.011 159.245 205.641 156.724C206.145 154.708 207.532 156.725 208.162 157.985L201.859 163.028C201.229 164.288 197.825 166.053 189.253 163.028C180.681 160.002 175.597 159.246 174.126 159.246C173.706 159.666 173.496 160.759 176.017 161.767C178.538 162.776 184.631 164.709 187.362 165.549C190.514 166.389 197.825 168.448 201.859 169.961C205.893 171.474 212.364 170.591 215.096 169.961C214.675 171.222 213.457 173.743 211.944 173.743C210.053 173.743 209.423 177.525 196.187 173.743C185.598 170.718 186.732 171.222 188.623 171.852C184.001 170.591 174.252 167.566 172.235 165.549C169.714 163.028 158.369 166.81 141.981 161.767C128.871 157.733 128.534 158.406 130.005 159.246L126.854 157.985C127.274 158.826 127.863 160.759 126.854 161.767C125.846 162.776 124.753 164.709 124.333 165.549V173.743C130.846 176.054 144.755 182.945 148.284 192.022L153.957 197.694L204.381 237.403C205.221 239.084 206.649 242.572 205.641 243.076C204.633 243.58 209.423 247.068 211.944 248.749C212.365 249.799 212.702 252.026 210.684 252.53C208.667 253.035 245.14 272.07 263.629 281.524L296.405 296.021C307.33 300.854 329.433 309.888 330.441 307.367C331.45 304.845 330.861 310.518 330.441 313.67C327.71 313.67 317.583 311.905 298.926 304.845C280.269 297.786 270.563 292.239 268.041 290.349L228.963 270.179L207.533 258.203L204.381 263.876L203.121 255.682L198.078 254.421L194.296 258.833H182.951L173.496 268.918C165.933 267.448 148.41 257.447 138.83 229.209V240.555H127.485V243.076H131.266L131.897 248.118L133.788 251.27L135.678 254.421L136.939 252.53V248.749H138.83V252.53L142.612 254.421L140.721 256.943L138.83 258.203V260.724L140.721 263.876L142.612 266.397H157.109V270.179H150.175V273.33C162.361 276.902 189.254 284.172 199.339 284.676V290.349C193.036 290.138 175.135 288.205 153.957 282.155C151.436 282.995 146.394 285.81 146.394 290.349C145.973 295.181 146.898 309.131 153.957 326.276L182.951 387.415" stroke="white" stroke-width="0.2"/>
</g>
<g style="mix-blend-mode:hard-light" filter="url(#filter5_f_1159_198)">
<path d="M108.991 132.801C147.313 146.92 158.995 151.71 160.045 152.34L138.615 153.601L139.245 155.492" stroke="#FF5C00" stroke-width="0.65"/>
</g>
<g style="mix-blend-mode:hard-light" filter="url(#filter6_f_1159_198)">
<path d="M108.991 132.801C147.313 146.92 158.995 151.71 160.045 152.34L138.615 153.601L139.245 155.492" stroke="#FF0000" stroke-width="0.85"/>
</g>
<g style="mix-blend-mode:hard-light" filter="url(#filter7_ddi_1159_198)">
<path d="M108.991 132.801C147.313 146.92 158.995 151.71 160.045 152.34L138.615 153.601L139.245 155.492" stroke="#FF0000" stroke-opacity="0.2" stroke-width="0.65"/>
</g>
<g filter="url(#filter8_f_1159_198)">
<path d="M108.991 132.801C147.313 146.92 158.995 151.71 160.045 152.34L138.615 153.601L139.245 155.492" stroke="#FF9983" stroke-width="0.4"/>
</g>
<g filter="url(#filter9_f_1159_198)">
<path d="M108.991 132.801C147.313 146.92 158.995 151.71 160.045 152.34L138.615 153.601L139.245 155.492" stroke="white" stroke-width="0.2"/>
</g>
<g style="mix-blend-mode:hard-light" filter="url(#filter10_f_1159_198)">
<path d="M109.615 132.993L76.5925 159.965L95.8914 158.72L98.4646 163.7L101.038 167.849L105.755 171.169L109.615 174.074H112.188L113.475 178.223L105.755 185.693V191.502L92.4605 205.61V209.76L95.0337 213.495L97.178 215.984L90.3162 235.902L95.0337 239.637V242.956L92.4605 244.201L88.6007 246.276C88.6007 247.244 88.6007 249.347 88.6007 250.011C88.6007 250.675 88.6007 253.607 88.6007 254.99L85.1698 257.895V260.8H71.875V267.024H85.1698L86.8852 269.514L85.1698 272.833L82.5966 278.228L81.31 281.132V283.207L78.7368 398.98" stroke="#FF5C00" stroke-width="0.65"/>
</g>
<g style="mix-blend-mode:hard-light" filter="url(#filter11_f_1159_198)">
<path d="M109.615 132.993L76.5925 159.965L95.8914 158.72L98.4646 163.7L101.038 167.849L105.755 171.169L109.615 174.074H112.188L113.475 178.223L105.755 185.693V191.502L92.4605 205.61V209.76L95.0337 213.495L97.178 215.984L90.3162 235.902L95.0337 239.637V242.956L92.4605 244.201L88.6007 246.276C88.6007 247.244 88.6007 249.347 88.6007 250.011C88.6007 250.675 88.6007 253.607 88.6007 254.99L85.1698 257.895V260.8H71.875V267.024H85.1698L86.8852 269.514L85.1698 272.833L82.5966 278.228L81.31 281.132V283.207L78.7368 398.98" stroke="#FF0000" stroke-width="0.85"/>
</g>
<g style="mix-blend-mode:hard-light" filter="url(#filter12_ddi_1159_198)">
<path d="M109.615 132.993L76.5925 159.965L95.8914 158.72L98.4646 163.7L101.038 167.849L105.755 171.169L109.615 174.074H112.188L113.475 178.223L105.755 185.693V191.502L92.4605 205.61V209.76L95.0337 213.495L97.178 215.984L90.3162 235.902L95.0337 239.637V242.956L92.4605 244.201L88.6007 246.276C88.6007 247.244 88.6007 249.347 88.6007 250.011C88.6007 250.675 88.6007 253.607 88.6007 254.99L85.1698 257.895V260.8H71.875V267.024H85.1698L86.8852 269.514L85.1698 272.833L82.5966 278.228L81.31 281.132V283.207L78.7368 398.98" stroke="#FF0000" stroke-opacity="0.2" stroke-width="0.65"/>
</g>
<g filter="url(#filter13_f_1159_198)">
<path d="M109.615 132.993L76.5925 159.965L95.8914 158.72L98.4646 163.7L101.038 167.849L105.755 171.169L109.615 174.074H112.188L113.475 178.223L105.755 185.693V191.502L92.4605 205.61V209.76L95.0337 213.495L97.178 215.984L90.3162 235.902L95.0337 239.637V242.956L92.4605 244.201L88.6007 246.276C88.6007 247.244 88.6007 249.347 88.6007 250.011C88.6007 250.675 88.6007 253.607 88.6007 254.99L85.1698 257.895V260.8H71.875V267.024H85.1698L86.8852 269.514L85.1698 272.833L82.5966 278.228L81.31 281.132V283.207L78.7368 398.98" stroke="#FF9983" stroke-width="0.4"/>
</g>
<g filter="url(#filter14_f_1159_198)">
<path d="M109.615 132.993L76.5925 159.965L95.8914 158.72L98.4646 163.7L101.038 167.849L105.755 171.169L109.615 174.074H112.188L113.475 178.223L105.755 185.693V191.502L92.4605 205.61V209.76L95.0337 213.495L97.178 215.984L90.3162 235.902L95.0337 239.637V242.956L92.4605 244.201L88.6007 246.276C88.6007 247.244 88.6007 249.347 88.6007 250.011C88.6007 250.675 88.6007 253.607 88.6007 254.99L85.1698 257.895V260.8H71.875V267.024H85.1698L86.8852 269.514L85.1698 272.833L82.5966 278.228L81.31 281.132V283.207L78.7368 398.98" stroke="white" stroke-width="0.2"/>
</g>
<g style="mix-blend-mode:hard-light" filter="url(#filter15_f_1159_198)">
<path d="M108.991 132.801C147.313 146.92 158.995 151.71 160.045 152.34L138.615 153.601L139.245 155.492" stroke="#FF5C00" stroke-width="0.65"/>
</g>
<g style="mix-blend-mode:hard-light" filter="url(#filter16_f_1159_198)">
<path d="M108.991 132.801C147.313 146.92 158.995 151.71 160.045 152.34L138.615 153.601L139.245 155.492" stroke="#FF0000" stroke-width="0.85"/>
</g>
<g style="mix-blend-mode:hard-light" filter="url(#filter17_ddi_1159_198)">
<path d="M108.991 132.801C147.313 146.92 158.995 151.71 160.045 152.34L138.615 153.601L139.245 155.492" stroke="#FF0000" stroke-opacity="0.2" stroke-width="0.65"/>
</g>
<g filter="url(#filter18_f_1159_198)">
<path d="M108.991 132.801C147.313 146.92 158.995 151.71 160.045 152.34L138.615 153.601L139.245 155.492" stroke="#FF9983" stroke-width="0.4"/>
</g>
<g filter="url(#filter19_f_1159_198)">
<path d="M108.991 132.801C147.313 146.92 158.995 151.71 160.045 152.34L138.615 153.601L139.245 155.492" stroke="white" stroke-width="0.2"/>
</g>
<g style="mix-blend-mode:hard-light" filter="url(#filter20_f_1159_198)">
<path d="M109.615 132.993L76.5925 159.965L95.8914 158.72L98.4646 163.7L101.038 167.849L105.755 171.169L109.615 174.074H112.188L113.475 178.223L105.755 185.693V191.502L92.4605 205.61V209.76L95.0337 213.495L97.178 215.984L90.3162 235.902L95.0337 239.637V242.956L92.4605 244.201L88.6007 246.276C88.6007 247.244 88.6007 249.347 88.6007 250.011C88.6007 250.675 88.6007 253.607 88.6007 254.99L85.1698 257.895V260.8H71.875V267.024H85.1698L86.8852 269.514L85.1698 272.833L82.5966 278.228L81.31 281.132V283.207L78.7368 398.98" stroke="#FF5C00" stroke-width="0.65"/>
</g>
<g style="mix-blend-mode:hard-light" filter="url(#filter21_f_1159_198)">
<path d="M109.615 132.993L76.5925 159.965L95.8914 158.72L98.4646 163.7L101.038 167.849L105.755 171.169L109.615 174.074H112.188L113.475 178.223L105.755 185.693V191.502L92.4605 205.61V209.76L95.0337 213.495L97.178 215.984L90.3162 235.902L95.0337 239.637V242.956L92.4605 244.201L88.6007 246.276C88.6007 247.244 88.6007 249.347 88.6007 250.011C88.6007 250.675 88.6007 253.607 88.6007 254.99L85.1698 257.895V260.8H71.875V267.024H85.1698L86.8852 269.514L85.1698 272.833L82.5966 278.228L81.31 281.132V283.207L78.7368 398.98" stroke="#FF0000" stroke-width="0.85"/>
</g>
<g style="mix-blend-mode:hard-light" filter="url(#filter22_ddi_1159_198)">
<path d="M109.615 132.993L76.5925 159.965L95.8914 158.72L98.4646 163.7L101.038 167.849L105.755 171.169L109.615 174.074H112.188L113.475 178.223L105.755 185.693V191.502L92.4605 205.61V209.76L95.0337 213.495L97.178 215.984L90.3162 235.902L95.0337 239.637V242.956L92.4605 244.201L88.6007 246.276C88.6007 247.244 88.6007 249.347 88.6007 250.011C88.6007 250.675 88.6007 253.607 88.6007 254.99L85.1698 257.895V260.8H71.875V267.024H85.1698L86.8852 269.514L85.1698 272.833L82.5966 278.228L81.31 281.132V283.207L78.7368 398.98" stroke="#FF0000" stroke-opacity="0.2" stroke-width="0.65"/>
</g>
<g filter="url(#filter23_f_1159_198)">
<path d="M109.615 132.993L76.5925 159.965L95.8914 158.72L98.4646 163.7L101.038 167.849L105.755 171.169L109.615 174.074H112.188L113.475 178.223L105.755 185.693V191.502L92.4605 205.61V209.76L95.0337 213.495L97.178 215.984L90.3162 235.902L95.0337 239.637V242.956L92.4605 244.201L88.6007 246.276C88.6007 247.244 88.6007 249.347 88.6007 250.011C88.6007 250.675 88.6007 253.607 88.6007 254.99L85.1698 257.895V260.8H71.875V267.024H85.1698L86.8852 269.514L85.1698 272.833L82.5966 278.228L81.31 281.132V283.207L78.7368 398.98" stroke="#FF9983" stroke-width="0.4"/>
</g>
<g filter="url(#filter24_f_1159_198)">
<path d="M109.615 132.993L76.5925 159.965L95.8914 158.72L98.4646 163.7L101.038 167.849L105.755 171.169L109.615 174.074H112.188L113.475 178.223L105.755 185.693V191.502L92.4605 205.61V209.76L95.0337 213.495L97.178 215.984L90.3162 235.902L95.0337 239.637V242.956L92.4605 244.201L88.6007 246.276C88.6007 247.244 88.6007 249.347 88.6007 250.011C88.6007 250.675 88.6007 253.607 88.6007 254.99L85.1698 257.895V260.8H71.875V267.024H85.1698L86.8852 269.514L85.1698 272.833L82.5966 278.228L81.31 281.132V283.207L78.7368 398.98" stroke="white" stroke-width="0.2"/>
</g>
<defs>
<filter id="filter0_f_1159_198" x="119.733" y="150.757" width="215.865" height="241.072" filterUnits="userSpaceOnUse" color-interpolation-filters="sRGB">
<feFlood flood-opacity="0" result="BackgroundImageFix"/>
<feBlend mode="normal" in="SourceGraphic" in2="BackgroundImageFix" result="shape"/>
<feGaussianBlur stdDeviation="2.1375" result="effect1_foregroundBlur_1159_198"/>
</filter>
<filter id="filter1_f_1159_198" x="122.483" y="153.507" width="210.365" height="235.515" filterUnits="userSpaceOnUse" color-interpolation-filters="sRGB">
<feFlood flood-opacity="0" result="BackgroundImageFix"/>
<feBlend mode="normal" in="SourceGraphic" in2="BackgroundImageFix" result="shape"/>
<feGaussianBlur stdDeviation="0.7125" result="effect1_foregroundBlur_1159_198"/>
</filter>
<filter id="filter2_ddi_1159_198" x="122.155" y="154.605" width="211.02" height="236.227" filterUnits="userSpaceOnUse" color-interpolation-filters="sRGB">
<feFlood flood-opacity="0" result="BackgroundImageFix"/>
<feColorMatrix in="SourceAlpha" type="matrix" values="0 0 0 0 0 0 0 0 0 0 0 0 0 0 0 0 0 0 127 0" result="hardAlpha"/>
<feOffset dy="0.65"/>
<feGaussianBlur stdDeviation="0.25"/>
<feColorMatrix type="matrix" values="0 0 0 0 0.15 0 0 0 0 0 0 0 0 0 0 0 0 0 0.7 0"/>
<feBlend mode="multiply" in2="BackgroundImageFix" result="effect1_dropShadow_1159_198"/>
<feColorMatrix in="SourceAlpha" type="matrix" values="0 0 0 0 0 0 0 0 0 0 0 0 0 0 0 0 0 0 127 0" result="hardAlpha"/>
<feOffset dy="1.425"/>
<feGaussianBlur stdDeviation="0.92625"/>
<feColorMatrix type="matrix" values="0 0 0 0 0.8 0 0 0 0 0.19 0 0 0 0 0.19 0 0 0 1 0"/>
<feBlend mode="color-dodge" in2="effect1_dropShadow_1159_198" result="effect2_dropShadow_1159_198"/>
<feBlend mode="normal" in="SourceGraphic" in2="effect2_dropShadow_1159_198" result="shape"/>
<feColorMatrix in="SourceAlpha" type="matrix" values="0 0 0 0 0 0 0 0 0 0 0 0 0 0 0 0 0 0 127 0" result="hardAlpha"/>
<feOffset dx="-0.065" dy="0.13"/>
<feGaussianBlur stdDeviation="0.0325"/>
<feComposite in2="hardAlpha" operator="arithmetic" k2="-1" k3="1"/>
<feColorMatrix type="matrix" values="0 0 0 0 1 0 0 0 0 1 0 0 0 0 1 0 0 0 0.5 0"/>
<feBlend mode="normal" in2="shape" result="effect3_innerShadow_1159_198"/>
</filter>
<filter id="filter3_f_1159_198" x="124.033" y="155.057" width="207.265" height="232.543" filterUnits="userSpaceOnUse" color-interpolation-filters="sRGB">
<feFlood flood-opacity="0" result="BackgroundImageFix"/>
<feBlend mode="normal" in="SourceGraphic" in2="BackgroundImageFix" result="shape"/>
<feGaussianBlur stdDeviation="0.05" result="effect1_foregroundBlur_1159_198"/>
</filter>
<filter id="filter4_f_1159_198" x="124.166" y="155.19" width="206.999" height="232.334" filterUnits="userSpaceOnUse" color-interpolation-filters="sRGB">
<feFlood flood-opacity="0" result="BackgroundImageFix"/>
<feBlend mode="normal" in="SourceGraphic" in2="BackgroundImageFix" result="shape"/>
<feGaussianBlur stdDeviation="0.0333333" result="effect1_foregroundBlur_1159_198"/>
</filter>
<filter id="filter5_f_1159_198" x="105.878" y="129.496" width="58.2358" height="29.0984" filterUnits="userSpaceOnUse" color-interpolation-filters="sRGB">
<feFlood flood-opacity="0" result="BackgroundImageFix"/>
<feBlend mode="normal" in="SourceGraphic" in2="BackgroundImageFix" result="shape"/>
<feGaussianBlur stdDeviation="1.5" result="effect1_foregroundBlur_1159_198"/>
</filter>
<filter id="filter6_f_1159_198" x="107.844" y="131.402" width="54.5996" height="25.2239" filterUnits="userSpaceOnUse" color-interpolation-filters="sRGB">
<feFlood flood-opacity="0" result="BackgroundImageFix"/>
<feBlend mode="normal" in="SourceGraphic" in2="BackgroundImageFix" result="shape"/>
<feGaussianBlur stdDeviation="0.5" result="effect1_foregroundBlur_1159_198"/>
</filter>
<filter id="filter7_ddi_1159_198" x="107.578" y="132.196" width="54.8358" height="25.6984" filterUnits="userSpaceOnUse" color-interpolation-filters="sRGB">
<feFlood flood-opacity="0" result="BackgroundImageFix"/>
<feColorMatrix in="SourceAlpha" type="matrix" values="0 0 0 0 0 0 0 0 0 0 0 0 0 0 0 0 0 0 127 0" result="hardAlpha"/>
<feOffset dy="0.65"/>
<feGaussianBlur stdDeviation="0.25"/>
<feColorMatrix type="matrix" values="0 0 0 0 0.15 0 0 0 0 0 0 0 0 0 0 0 0 0 0.7 0"/>
<feBlend mode="multiply" in2="BackgroundImageFix" result="effect1_dropShadow_1159_198"/>
<feColorMatrix in="SourceAlpha" type="matrix" values="0 0 0 0 0 0 0 0 0 0 0 0 0 0 0 0 0 0 127 0" result="hardAlpha"/>
<feOffset dy="1"/>
<feGaussianBlur stdDeviation="0.65"/>
<feColorMatrix type="matrix" values="0 0 0 0 0.8 0 0 0 0 0.19 0 0 0 0 0.19 0 0 0 1 0"/>
<feBlend mode="color-dodge" in2="effect1_dropShadow_1159_198" result="effect2_dropShadow_1159_198"/>
<feBlend mode="normal" in="SourceGraphic" in2="effect2_dropShadow_1159_198" result="shape"/>
<feColorMatrix in="SourceAlpha" type="matrix" values="0 0 0 0 0 0 0 0 0 0 0 0 0 0 0 0 0 0 127 0" result="hardAlpha"/>
<feOffset dx="-0.065" dy="0.13"/>
<feGaussianBlur stdDeviation="0.0325"/>
<feComposite in2="hardAlpha" operator="arithmetic" k2="-1" k3="1"/>
<feColorMatrix type="matrix" values="0 0 0 0 1 0 0 0 0 1 0 0 0 0 1 0 0 0 0.5 0"/>
<feBlend mode="normal" in2="shape" result="effect3_innerShadow_1159_198"/>
</filter>
<filter id="filter8_f_1159_198" x="108.821" y="132.513" width="51.9817" height="23.1419" filterUnits="userSpaceOnUse" color-interpolation-filters="sRGB">
<feFlood flood-opacity="0" result="BackgroundImageFix"/>
<feBlend mode="normal" in="SourceGraphic" in2="BackgroundImageFix" result="shape"/>
<feGaussianBlur stdDeviation="0.05" result="effect1_foregroundBlur_1159_198"/>
</filter>
<filter id="filter9_f_1159_198" x="108.889" y="132.64" width="51.5513" height="22.9495" filterUnits="userSpaceOnUse" color-interpolation-filters="sRGB">
<feFlood flood-opacity="0" result="BackgroundImageFix"/>
<feBlend mode="normal" in="SourceGraphic" in2="BackgroundImageFix" result="shape"/>
<feGaussianBlur stdDeviation="0.0333333" result="effect1_foregroundBlur_1159_198"/>
</filter>
<filter id="filter10_f_1159_198" x="68.5498" y="129.741" width="48.2944" height="272.246" filterUnits="userSpaceOnUse" color-interpolation-filters="sRGB">
<feFlood flood-opacity="0" result="BackgroundImageFix"/>
<feBlend mode="normal" in="SourceGraphic" in2="BackgroundImageFix" result="shape"/>
<feGaussianBlur stdDeviation="1.5" result="effect1_foregroundBlur_1159_198"/>
</filter>
<filter id="filter11_f_1159_198" x="70.4502" y="131.664" width="44.5078" height="268.325" filterUnits="userSpaceOnUse" color-interpolation-filters="sRGB">
<feFlood flood-opacity="0" result="BackgroundImageFix"/>
<feBlend mode="normal" in="SourceGraphic" in2="BackgroundImageFix" result="shape"/>
<feGaussianBlur stdDeviation="0.5" result="effect1_foregroundBlur_1159_198"/>
</filter>
<filter id="filter12_ddi_1159_198" x="70.2498" y="132.441" width="44.8944" height="268.846" filterUnits="userSpaceOnUse" color-interpolation-filters="sRGB">
<feFlood flood-opacity="0" result="BackgroundImageFix"/>
<feColorMatrix in="SourceAlpha" type="matrix" values="0 0 0 0 0 0 0 0 0 0 0 0 0 0 0 0 0 0 127 0" result="hardAlpha"/>
<feOffset dy="0.65"/>
<feGaussianBlur stdDeviation="0.25"/>
<feColorMatrix type="matrix" values="0 0 0 0 0.15 0 0 0 0 0 0 0 0 0 0 0 0 0 0.7 0"/>
<feBlend mode="multiply" in2="BackgroundImageFix" result="effect1_dropShadow_1159_198"/>
<feColorMatrix in="SourceAlpha" type="matrix" values="0 0 0 0 0 0 0 0 0 0 0 0 0 0 0 0 0 0 127 0" result="hardAlpha"/>
<feOffset dy="1"/>
<feGaussianBlur stdDeviation="0.65"/>
<feColorMatrix type="matrix" values="0 0 0 0 0.8 0 0 0 0 0.19 0 0 0 0 0.19 0 0 0 1 0"/>
<feBlend mode="color-dodge" in2="effect1_dropShadow_1159_198" result="effect2_dropShadow_1159_198"/>
<feBlend mode="normal" in="SourceGraphic" in2="effect2_dropShadow_1159_198" result="shape"/>
<feColorMatrix in="SourceAlpha" type="matrix" values="0 0 0 0 0 0 0 0 0 0 0 0 0 0 0 0 0 0 127 0" result="hardAlpha"/>
<feOffset dx="-0.065" dy="0.13"/>
<feGaussianBlur stdDeviation="0.0325"/>
<feComposite in2="hardAlpha" operator="arithmetic" k2="-1" k3="1"/>
<feColorMatrix type="matrix" values="0 0 0 0 1 0 0 0 0 1 0 0 0 0 1 0 0 0 0.5 0"/>
<feBlend mode="normal" in2="shape" result="effect3_innerShadow_1159_198"/>
</filter>
<filter id="filter13_f_1159_198" x="71.5748" y="132.738" width="42.2273" height="266.346" filterUnits="userSpaceOnUse" color-interpolation-filters="sRGB">
<feFlood flood-opacity="0" result="BackgroundImageFix"/>
<feBlend mode="normal" in="SourceGraphic" in2="BackgroundImageFix" result="shape"/>
<feGaussianBlur stdDeviation="0.05" result="effect1_foregroundBlur_1159_198"/>
</filter>
<filter id="filter14_f_1159_198" x="71.7082" y="132.849" width="41.9468" height="266.199" filterUnits="userSpaceOnUse" color-interpolation-filters="sRGB">
<feFlood flood-opacity="0" result="BackgroundImageFix"/>
<feBlend mode="normal" in="SourceGraphic" in2="BackgroundImageFix" result="shape"/>
<feGaussianBlur stdDeviation="0.0333333" result="effect1_foregroundBlur_1159_198"/>
</filter>
<filter id="filter15_f_1159_198" x="105.878" y="129.496" width="58.2358" height="29.0984" filterUnits="userSpaceOnUse" color-interpolation-filters="sRGB">
<feFlood flood-opacity="0" result="BackgroundImageFix"/>
<feBlend mode="normal" in="SourceGraphic" in2="BackgroundImageFix" result="shape"/>
<feGaussianBlur stdDeviation="1.5" result="effect1_foregroundBlur_1159_198"/>
</filter>
<filter id="filter16_f_1159_198" x="107.844" y="131.402" width="54.5996" height="25.2239" filterUnits="userSpaceOnUse" color-interpolation-filters="sRGB">
<feFlood flood-opacity="0" result="BackgroundImageFix"/>
<feBlend mode="normal" in="SourceGraphic" in2="BackgroundImageFix" result="shape"/>
<feGaussianBlur stdDeviation="0.5" result="effect1_foregroundBlur_1159_198"/>
</filter>
<filter id="filter17_ddi_1159_198" x="107.578" y="132.196" width="54.8358" height="25.6984" filterUnits="userSpaceOnUse" color-interpolation-filters="sRGB">
<feFlood flood-opacity="0" result="BackgroundImageFix"/>
<feColorMatrix in="SourceAlpha" type="matrix" values="0 0 0 0 0 0 0 0 0 0 0 0 0 0 0 0 0 0 127 0" result="hardAlpha"/>
<feOffset dy="0.65"/>
<feGaussianBlur stdDeviation="0.25"/>
<feColorMatrix type="matrix" values="0 0 0 0 0.15 0 0 0 0 0 0 0 0 0 0 0 0 0 0.7 0"/>
<feBlend mode="multiply" in2="BackgroundImageFix" result="effect1_dropShadow_1159_198"/>
<feColorMatrix in="SourceAlpha" type="matrix" values="0 0 0 0 0 0 0 0 0 0 0 0 0 0 0 0 0 0 127 0" result="hardAlpha"/>
<feOffset dy="1"/>
<feGaussianBlur stdDeviation="0.65"/>
<feColorMatrix type="matrix" values="0 0 0 0 0.8 0 0 0 0 0.19 0 0 0 0 0.19 0 0 0 1 0"/>
<feBlend mode="color-dodge" in2="effect1_dropShadow_1159_198" result="effect2_dropShadow_1159_198"/>
<feBlend mode="normal" in="SourceGraphic" in2="effect2_dropShadow_1159_198" result="shape"/>
<feColorMatrix in="SourceAlpha" type="matrix" values="0 0 0 0 0 0 0 0 0 0 0 0 0 0 0 0 0 0 127 0" result="hardAlpha"/>
<feOffset dx="-0.065" dy="0.13"/>
<feGaussianBlur stdDeviation="0.0325"/>
<feComposite in2="hardAlpha" operator="arithmetic" k2="-1" k3="1"/>
<feColorMatrix type="matrix" values="0 0 0 0 1 0 0 0 0 1 0 0 0 0 1 0 0 0 0.5 0"/>
<feBlend mode="normal" in2="shape" result="effect3_innerShadow_1159_198"/>
</filter>
<filter id="filter18_f_1159_198" x="108.821" y="132.513" width="51.9817" height="23.1419" filterUnits="userSpaceOnUse" color-interpolation-filters="sRGB">
<feFlood flood-opacity="0" result="BackgroundImageFix"/>
<feBlend mode="normal" in="SourceGraphic" in2="BackgroundImageFix" result="shape"/>
<feGaussianBlur stdDeviation="0.05" result="effect1_foregroundBlur_1159_198"/>
</filter>
<filter id="filter19_f_1159_198" x="108.889" y="132.64" width="51.5513" height="22.9495" filterUnits="userSpaceOnUse" color-interpolation-filters="sRGB">
<feFlood flood-opacity="0" result="BackgroundImageFix"/>
<feBlend mode="normal" in="SourceGraphic" in2="BackgroundImageFix" result="shape"/>
<feGaussianBlur stdDeviation="0.0333333" result="effect1_foregroundBlur_1159_198"/>
</filter>
<filter id="filter20_f_1159_198" x="68.5498" y="129.741" width="48.2944" height="272.246" filterUnits="userSpaceOnUse" color-interpolation-filters="sRGB">
<feFlood flood-opacity="0" result="BackgroundImageFix"/>
<feBlend mode="normal" in="SourceGraphic" in2="BackgroundImageFix" result="shape"/>
<feGaussianBlur stdDeviation="1.5" result="effect1_foregroundBlur_1159_198"/>
</filter>
<filter id="filter21_f_1159_198" x="70.4502" y="131.664" width="44.5078" height="268.325" filterUnits="userSpaceOnUse" color-interpolation-filters="sRGB">
<feFlood flood-opacity="0" result="BackgroundImageFix"/>
<feBlend mode="normal" in="SourceGraphic" in2="BackgroundImageFix" result="shape"/>
<feGaussianBlur stdDeviation="0.5" result="effect1_foregroundBlur_1159_198"/>
</filter>
<filter id="filter22_ddi_1159_198" x="70.2498" y="132.441" width="44.8944" height="268.846" filterUnits="userSpaceOnUse" color-interpolation-filters="sRGB">
<feFlood flood-opacity="0" result="BackgroundImageFix"/>
<feColorMatrix in="SourceAlpha" type="matrix" values="0 0 0 0 0 0 0 0 0 0 0 0 0 0 0 0 0 0 127 0" result="hardAlpha"/>
<feOffset dy="0.65"/>
<feGaussianBlur stdDeviation="0.25"/>
<feColorMatrix type="matrix" values="0 0 0 0 0.15 0 0 0 0 0 0 0 0 0 0 0 0 0 0.7 0"/>
<feBlend mode="multiply" in2="BackgroundImageFix" result="effect1_dropShadow_1159_198"/>
<feColorMatrix in="SourceAlpha" type="matrix" values="0 0 0 0 0 0 0 0 0 0 0 0 0 0 0 0 0 0 127 0" result="hardAlpha"/>
<feOffset dy="1"/>
<feGaussianBlur stdDeviation="0.65"/>
<feColorMatrix type="matrix" values="0 0 0 0 0.8 0 0 0 0 0.19 0 0 0 0 0.19 0 0 0 1 0"/>
<feBlend mode="color-dodge" in2="effect1_dropShadow_1159_198" result="effect2_dropShadow_1159_198"/>
<feBlend mode="normal" in="SourceGraphic" in2="effect2_dropShadow_1159_198" result="shape"/>
<feColorMatrix in="SourceAlpha" type="matrix" values="0 0 0 0 0 0 0 0 0 0 0 0 0 0 0 0 0 0 127 0" result="hardAlpha"/>
<feOffset dx="-0.065" dy="0.13"/>
<feGaussianBlur stdDeviation="0.0325"/>
<feComposite in2="hardAlpha" operator="arithmetic" k2="-1" k3="1"/>
<feColorMatrix type="matrix" values="0 0 0 0 1 0 0 0 0 1 0 0 0 0 1 0 0 0 0.5 0"/>
<feBlend mode="normal" in2="shape" result="effect3_innerShadow_1159_198"/>
</filter>
<filter id="filter23_f_1159_198" x="71.5748" y="132.738" width="42.2273" height="266.346" filterUnits="userSpaceOnUse" color-interpolation-filters="sRGB">
<feFlood flood-opacity="0" result="BackgroundImageFix"/>
<feBlend mode="normal" in="SourceGraphic" in2="BackgroundImageFix" result="shape"/>
<feGaussianBlur stdDeviation="0.05" result="effect1_foregroundBlur_1159_198"/>
</filter>
<filter id="filter24_f_1159_198" x="71.7082" y="132.849" width="41.9468" height="266.199" filterUnits="userSpaceOnUse" color-interpolation-filters="sRGB">
<feFlood flood-opacity="0" result="BackgroundImageFix"/>
<feBlend mode="normal" in="SourceGraphic" in2="BackgroundImageFix" result="shape"/>
<feGaussianBlur stdDeviation="0.0333333" result="effect1_foregroundBlur_1159_198"/>
</filter>
<radialGradient id="paint0_radial_1159_198" cx="0" cy="0" r="1" gradientUnits="userSpaceOnUse" gradientTransform="translate(190.526 124.027) rotate(90) scale(124.027 190.526)">
<stop stop-color="#A71812" stop-opacity="0.49"/>
<stop offset="0.90625" stop-color="#FF0000" stop-opacity="0"/>
</radialGradient>
<radialGradient id="paint1_radial_1159_198" cx="0" cy="0" r="1" gradientUnits="userSpaceOnUse" gradientTransform="translate(115.806 25.694) rotate(90) scale(25.694 115.806)">
<stop stop-color="#A71812" stop-opacity="0.6"/>
<stop offset="1" stop-color="#FF0000" stop-opacity="0"/>
</radialGradient>
</defs>
</svg>
