<svg width="360" height="450" viewBox="0 0 360 450" fill="none" xmlns="http://www.w3.org/2000/svg">
<g clip-path="url(#clip0_1068_1829)">
<path d="M68.3913 263.656L68.4552 269.608L40.1672 270.12L38.8872 288.168L32.8712 287.72L35.9432 246.568L38.9513 243.816L71.1432 244.84L70.9513 250.856L41.7032 249.96L40.6152 264.104L68.3913 263.656ZM84.5887 251.496L90.4128 249.896L92.3328 257.064L86.5087 258.664L84.5887 251.496ZM82.9887 287.784L86.1248 262.376L92.1407 263.08L89.0048 288.488L82.9887 287.784ZM106.818 286.76L127.81 283.048L127.298 272.04L108.738 275.944L105.154 272.424L108.866 253.288L112.13 250.856L129.858 252.52L132.61 255.336L133.89 285.48L131.394 288.488L107.906 292.648L106.818 286.76ZM111.938 269.16L126.978 265.96L126.658 258.28L114.306 257.064L111.938 269.16ZM147.974 286.12L150.534 259.432L154.31 256.808L168.262 260.584L181.766 256.808L185.606 259.624L186.95 286.248L180.934 286.568L179.718 263.72L170.95 266.088L171.078 286.312L165.126 286.44L164.934 266.024L156.23 263.592L153.99 286.632L147.974 286.12ZM232.709 286.824L231.557 285.48L205.125 289.704L201.669 286.056L205.381 271.4L208.261 269.096H228.485L227.141 259.112L204.101 264.744L202.629 258.92L228.933 252.456L232.645 255.016L236.229 281.576L240.709 282.856L239.109 288.616L232.709 286.824ZM229.893 279.592L229.317 275.176H210.629L208.645 282.984L229.893 279.592Z" fill="white"/>
<path d="M38.965 393.656L39.029 399.608L10.741 400.12L9.461 418.168L3.445 417.72L6.517 376.568L9.525 373.816L41.717 374.84L41.525 380.856L12.277 379.96L11.189 394.104L38.965 393.656ZM54.2025 384.952L60.2185 384.76L60.4105 392.632L75.0025 385.72L77.5625 391.288L60.6025 399.224L61.2425 418.552L55.1625 418.68L54.2025 384.952ZM90.636 415.544L87.82 412.28L89.356 390.328L92.236 387.576L113.484 386.68L116.62 389.624L117.26 413.816L114.06 416.888L90.636 415.544ZM111.18 410.68L110.732 392.824L95.18 393.464L94.092 409.72L111.18 410.68ZM154.449 394.68L140.817 396.856L138.001 415.736L131.985 414.84L135.185 393.784L137.681 391.224L156.881 388.216L160.401 391.032L161.617 416.184L155.537 416.504L154.449 394.68ZM192.239 411.128L204.783 414.712L203.183 420.472L188.143 416.248L185.967 413.048L187.567 395.832L174.959 396.728L174.447 390.648L188.143 389.688L188.783 382.968L194.799 383.544L194.287 389.304L208.687 388.28L209.071 394.232L193.711 395.384L192.239 411.128ZM224.277 415.16L221.845 411.768L224.917 388.984L227.605 386.424L246.357 384.888L249.301 386.488L254.741 397.24L252.629 401.528L232.725 405.688L231.445 399.864L247.509 396.408L244.821 391.096L230.485 392.184L228.181 409.784L250.197 413.88L249.045 419.768L224.277 415.16ZM288.739 394.68L275.107 396.856L272.291 415.736L266.275 414.84L269.475 393.784L271.971 391.224L291.171 388.216L294.691 391.032L295.907 416.184L289.827 416.504L288.739 394.68ZM310.018 415.032L312.962 392.952L316.418 390.392L335.234 393.4L334.21 379.064L340.29 378.68L342.53 412.344L339.842 415.544L313.282 418.424L310.018 415.032ZM316.482 412.024L336.322 409.912L335.618 399.544L318.53 396.792L316.482 412.024Z" fill="#818181"/>
<path d="M131.837 67.872L133.469 52.656L134.741 51.648L147.101 53.472L146.789 55.728L135.581 54.072L134.237 66.696L147.653 65.256L147.893 67.512L133.109 69.096L131.837 67.872ZM150.303 66.768L163.719 65.592L162.639 60.72L152.247 61.92L150.999 60.768L151.335 52.776L152.559 51.696L165.207 52.872L165.015 55.128L153.543 54.072L153.303 59.52L163.383 58.392L164.607 59.256L166.215 66.36L165.183 67.752L150.519 69L150.303 66.768ZM168.373 66.768L181.789 65.592L180.709 60.72L170.317 61.92L169.069 60.768L169.405 52.776L170.629 51.696L183.277 52.872L183.085 55.128L171.613 54.072L171.373 59.52L181.453 58.392L182.677 59.256L184.285 66.36L183.253 67.752L168.589 69L168.373 66.768Z" fill="#717171"/>
<path d="M128.2 95.08L128.272 86.656L131.656 86.728L131.44 111.46L128.056 111.424L128.164 98.5L112.972 99.796L112.396 111.496L109.012 111.316L110.236 86.584L113.62 86.764L113.116 96.412L128.2 95.08ZM146.948 89.824L146.084 112.18L142.664 112.072L143.6 89.716L132.008 89.32L132.152 85.9L158.864 86.872L158.792 90.22L146.948 89.824ZM179.375 92.92L172.859 104.44L169.835 104.296L164.939 93.64L161.843 110.956L158.495 110.344L162.563 87.7L165.731 87.304L171.563 99.868L178.763 87.16L181.895 87.7L185.999 110.344L182.651 110.956L179.375 92.92ZM191.562 111.424L189.942 109.516L192.498 86.224L195.882 86.62L193.542 108.076L208.626 108.544L208.482 111.892L191.562 111.424Z" fill="#878787"/>
<path d="M48.7063 154.396L50.3263 129.052L52.0543 127.504H69.8023L71.5303 129.016L72.7903 141.652L71.1703 143.56L54.7903 144.604L54.5743 141.22L69.2263 140.284L68.2903 130.852H53.6023L52.0903 154.612L48.7063 154.396ZM77.9667 152.056L76.3827 150.22L77.2467 137.872L78.8667 136.324L90.8187 135.82L92.5827 137.476L92.9427 151.084L91.1427 152.812L77.9667 152.056ZM89.5227 149.32L89.2707 139.276L80.5227 139.636L79.9107 148.78L89.5227 149.32ZM96.9055 152.848L97.5535 149.5L106.625 151.228L109.289 146.62L98.5615 145.108L97.1215 143.236L97.6615 136.288L99.2455 134.74L110.765 133.84L110.981 137.224L100.973 137.98L100.649 141.94L112.205 143.596L113.465 146.116L108.965 153.964L107.201 154.756L96.9055 152.848ZM125.283 149.572L132.339 151.588L131.439 154.828L122.979 152.452L121.755 150.652L122.655 140.968L115.563 141.472L115.275 138.052L122.979 137.512L123.339 133.732L126.723 134.056L126.435 137.296L134.535 136.72L134.751 140.068L126.111 140.716L125.283 149.572ZM137.616 151.768L139.272 139.348L141.216 137.908L151.8 139.6L151.224 131.536L154.644 131.32L155.904 150.256L154.392 152.056L139.452 153.676L137.616 151.768ZM141.252 150.076L152.412 148.888L152.016 143.056L142.404 141.508L141.252 150.076ZM159.879 134.848L163.263 134.74L163.371 139.168L171.579 135.28L173.019 138.412L163.479 142.876L163.839 153.748L160.419 153.82L159.879 134.848ZM175.477 151.84L174.109 149.932L175.837 137.116L177.349 135.676L187.897 134.812L189.553 135.712L192.613 141.76L191.425 144.172L180.229 146.512L179.509 143.236L188.545 141.292L187.033 138.304L178.969 138.916L177.673 148.816L190.057 151.12L189.409 154.432L175.477 151.84ZM194.6 150.652L214.724 148.888L213.104 141.58L197.516 143.38L195.644 141.652L196.148 129.664L197.984 128.044L216.956 129.808L216.668 133.192L199.46 131.608L199.1 139.78L214.22 138.088L216.056 139.384L218.468 150.04L216.92 152.128L194.924 154L194.6 150.652ZM241.686 151.948L224.082 153.352L222.246 151.516L223.83 131.212L225.342 129.7L241.974 128.08L243.81 129.7L244.53 149.824L246.654 151.336L244.674 154.072L241.686 151.948ZM225.81 149.824L237.438 148.888L233.73 146.224L235.71 143.452L241.038 147.304L240.462 131.644L227.106 132.94L225.81 149.824ZM251.327 153.424L249.707 151.516L252.263 128.224L255.647 128.62L253.307 150.076L268.391 150.544L268.247 153.892L251.327 153.424Z" fill="#5F5D5D"/>
<path d="M65.7134 194.92V171.16L67.5134 169.504L88.1774 170.62L89.3294 173.392L81.1214 183.076L88.2134 191.644L87.0974 194.416L67.6214 196.612L65.7134 194.92ZM69.0974 193.012L83.6414 191.392L77.5934 184.12L77.6294 181.96L84.5774 173.824L69.0974 172.96V193.012ZM115.054 194.776L114.406 194.02L99.5385 196.396L97.5945 194.344L99.6825 186.1L101.302 184.804H112.678L111.922 179.188L98.9625 182.356L98.1345 179.08L112.93 175.444L115.018 176.884L117.034 191.824L119.554 192.544L118.654 195.784L115.054 194.776ZM113.47 190.708L113.146 188.224H102.634L101.518 192.616L113.47 190.708ZM127.643 193.66L129.299 177.82L131.243 176.344L142.799 178.216L142.259 181.564L132.503 179.98L131.207 191.896L143.231 190.456L143.627 193.84L129.479 195.496L127.643 193.66ZM152.102 194.596L157.25 171.304L160.562 172.024L155.45 195.316L152.102 194.596ZM159.482 188.512L159.446 186.064L166.718 179.116L169.058 181.564L163.118 187.216L170.57 193.696L168.338 196.252L159.482 188.512ZM180.055 193.84L178.687 191.932L180.415 179.116L181.927 177.676L192.475 176.812L194.131 177.712L197.191 183.76L196.003 186.172L184.807 188.512L184.087 185.236L193.123 183.292L191.611 180.304L183.547 180.916L182.251 190.816L194.635 193.12L193.987 196.432L180.055 193.84ZM217.935 182.32L210.267 183.544L208.683 194.164L205.299 193.66L207.099 181.816L208.503 180.376L219.303 178.684L221.283 180.268L221.967 194.416L218.547 194.596L217.935 182.32ZM231.524 193.768L233.18 181.348L235.124 179.908L245.708 181.6L245.132 173.536L248.552 173.32L249.812 192.256L248.3 194.056L233.36 195.676L231.524 193.768ZM235.16 192.076L246.32 190.888L245.924 185.056L236.312 183.508L235.16 192.076Z" fill="#B5B5B5"/>
<path d="M152.366 238.46L153.482 215.42L155.102 213.8L172.886 213.26L174.614 214.736L176.126 226.904L174.254 228.776L171.41 228.488L176.342 237.2L173.426 238.856L167.342 228.056L159.71 227.264L160.07 223.88L172.49 225.176L171.446 216.68L156.794 217.184L155.75 238.64L152.366 238.46ZM187.061 236.84L185.693 234.932L187.421 222.116L188.933 220.676L199.481 219.812L201.137 220.712L204.197 226.76L203.009 229.172L191.813 231.512L191.093 228.236L200.129 226.292L198.617 223.304L190.553 223.916L189.257 233.816L201.641 236.12L200.993 239.432L187.061 236.84ZM230.665 237.776L230.017 237.02L215.149 239.396L213.205 237.344L215.293 229.1L216.913 227.804H228.289L227.533 222.188L214.573 225.356L213.745 222.08L228.541 218.444L230.629 219.884L232.645 234.824L235.165 235.544L234.265 238.784L230.665 237.776ZM229.081 233.708L228.757 231.224H218.245L217.129 235.616L229.081 233.708ZM243.794 236.66L245.45 220.82L247.394 219.344L258.95 221.216L258.41 224.564L248.654 222.98L247.358 234.896L259.382 233.456L259.778 236.84L245.63 238.496L243.794 236.66ZM278.441 234.572L285.497 236.588L284.597 239.828L276.137 237.452L274.913 235.652L275.813 225.968L268.721 226.472L268.433 223.052L276.137 222.512L276.497 218.732L279.881 219.056L279.593 222.296L287.693 221.72L287.909 225.068L279.269 225.716L278.441 234.572Z" fill="white"/>
<path d="M24.4169 330.184L31.9049 328.008L31.4569 313.288L26.4969 312.904L26.7529 309.928L39.2969 310.792L39.1049 313.832L34.4969 313.512L34.9769 329.064L33.8889 330.568L25.3129 333.064L24.4169 330.184ZM55.9244 331.912L55.3484 331.24L42.1324 333.352L40.4044 331.528L42.2604 324.2L43.7004 323.048H53.8124L53.1404 318.056L41.6204 320.872L40.8844 317.96L54.0364 314.728L55.8924 316.008L57.6844 329.288L59.9244 329.928L59.1244 332.808L55.9244 331.912ZM54.5164 328.296L54.2284 326.088H44.8844L43.8924 329.992L54.5164 328.296ZM65.7064 331.496L60.8744 315.816L63.7544 314.92L67.6904 327.688L75.8504 316.36L78.2824 318.12L68.3624 331.912L65.7064 331.496ZM95.3931 331.912L94.8171 331.24L81.6011 333.352L79.8731 331.528L81.7291 324.2L83.1691 323.048H93.2811L92.6091 318.056L81.0891 320.872L80.3531 317.96L93.5051 314.728L95.3611 316.008L97.1531 329.288L99.3931 329.928L98.5931 332.808L95.3931 331.912ZM93.9851 328.296L93.6971 326.088H84.3531L83.3611 329.992L93.9851 328.296Z" fill="white"/>
<path d="M4.01813 351.024L21.9061 349.456L20.4661 342.96L6.61013 344.56L4.94613 343.024L5.39413 332.368L7.02613 330.928L23.8901 332.496L23.6341 335.504L8.33813 334.096L8.01813 341.36L21.4581 339.856L23.0901 341.008L25.2341 350.48L23.8581 352.336L4.30613 354L4.01813 351.024ZM28.2719 355.568L29.3919 336.656L31.1839 335.248L41.1679 337.296L42.3199 338.608L43.3439 346.576L42.1599 348.272L33.5839 350.064L32.9439 347.152L40.2079 345.584L39.4719 340.048L32.2719 338.576L31.2799 355.728L28.2719 355.568ZM46.5294 336.976L49.5374 336.88L49.6334 340.816L56.9294 337.36L58.2094 340.144L49.7294 344.112L50.0494 353.776L47.0094 353.84L46.5294 336.976ZM59.9781 335.248L62.8901 334.448L63.8501 338.032L60.9381 338.832L59.9781 335.248ZM59.1781 353.392L60.7461 340.688L63.7541 341.04L62.1861 353.744L59.1781 353.392ZM77.9726 341.84L71.1566 342.928L69.7486 352.368L66.7406 351.92L68.3406 341.392L69.5886 340.112L79.1886 338.608L80.9486 340.016L81.5566 352.592L78.5166 352.752L77.9726 341.84ZM85.2839 352.88L95.7799 351.024L95.5239 345.52L86.2439 347.472L84.4519 345.712L86.3079 336.144L87.9399 334.928L96.8039 335.76L98.1799 337.168L98.8199 352.24L97.5719 353.744L85.8279 355.824L85.2839 352.88ZM87.8439 344.08L95.3639 342.48L95.2039 338.64L89.0279 338.032L87.8439 344.08Z" fill="white"/>
<path d="M128.88 339.832L137.304 337.384L136.8 320.824L131.22 320.392L131.508 317.044L145.62 318.016L145.404 321.436L140.22 321.076L140.76 338.572L139.536 340.264L129.888 343.072L128.88 339.832ZM167.206 341.776L166.558 341.02L151.69 343.396L149.746 341.344L151.834 333.1L153.454 331.804H164.83L164.074 326.188L151.114 329.356L150.286 326.08L165.082 322.444L167.17 323.884L169.186 338.824L171.706 339.544L170.806 342.784L167.206 341.776ZM165.622 337.708L165.298 335.224H154.786L153.67 339.616L165.622 337.708ZM181.091 341.308L175.655 323.668L178.895 322.66L183.323 337.024L192.503 324.28L195.239 326.26L184.079 341.776L181.091 341.308ZM217.368 341.776L216.72 341.02L201.852 343.396L199.908 341.344L201.996 333.1L203.616 331.804H214.992L214.236 326.188L201.276 329.356L200.448 326.08L215.244 322.444L217.332 323.884L219.348 338.824L221.868 339.544L220.968 342.784L217.368 341.776ZM215.784 337.708L215.46 335.224H204.948L203.832 339.616L215.784 337.708ZM226.717 339.652L246.841 337.888L245.221 330.58L229.633 332.38L227.761 330.652L228.265 318.664L230.101 317.044L249.073 318.808L248.785 322.192L231.577 320.608L231.217 328.78L246.337 327.088L248.173 328.384L250.585 339.04L249.037 341.128L227.041 343L226.717 339.652ZM256.883 340.66L258.539 324.82L260.483 323.344L272.039 325.216L271.499 328.564L261.743 326.98L260.447 338.896L272.471 337.456L272.867 340.84L258.719 342.496L256.883 340.66ZM279.001 323.848L282.385 323.74L282.493 328.168L290.701 324.28L292.141 327.412L282.601 331.876L282.961 342.748L279.541 342.82L279.001 323.848ZM297.011 321.904L300.287 321.004L301.367 325.036L298.091 325.936L297.011 321.904ZM296.111 342.316L297.875 328.024L301.259 328.42L299.495 342.712L296.111 342.316ZM307.499 344.764L308.759 323.488L310.775 321.904L322.007 324.208L323.303 325.684L324.455 334.648L323.123 336.556L313.475 338.572L312.755 335.296L320.927 333.532L320.099 327.304L311.999 325.648L310.883 344.944L307.499 344.764ZM339.847 338.572L346.903 340.588L346.003 343.828L337.543 341.452L336.319 339.652L337.219 329.968L330.127 330.472L329.839 327.052L337.543 326.512L337.903 322.732L341.287 323.056L340.999 326.296L349.099 325.72L349.315 329.068L340.675 329.716L339.847 338.572Z" fill="#B5B5B5"/>
</g>
<defs>
<clipPath id="clip0_1068_1829">
<rect width="360" height="450" fill="white"/>
</clipPath>
</defs>
</svg>
