<svg width="107" height="37" viewBox="0 0 107 37" fill="none" xmlns="http://www.w3.org/2000/svg">
<path d="M0.9 16.14L12.08 15.16L11.18 11.1L2.52 12.1L1.48 11.14L1.76 4.48L2.78 3.58L13.32 4.56L13.16 6.44L3.6 5.56L3.4 10.1L11.8 9.16L12.82 9.88L14.16 15.8L13.3 16.96L1.08 18L0.9 16.14ZM25.9786 11.86L26.3186 13.74L20.5986 14.7L18.8786 18.48L17.1586 17.72L23.8186 3.16L25.5386 3.14L31.6186 15.92L29.9186 16.74L24.6786 5.78L21.5586 12.62L25.9786 11.86ZM46.218 7.4L42.598 13.8L40.918 13.72L38.198 7.8L36.478 17.42L34.618 17.08L36.878 4.5L38.638 4.28L41.878 11.26L45.878 4.2L47.618 4.5L49.898 17.08L48.038 17.42L46.218 7.4ZM54.5883 17.14L53.7083 16.2L53.4883 4.24L55.3683 4.18L55.5883 15.3L62.9883 15.86L64.0483 3.84L65.9083 4L64.7883 16.94L63.7683 17.8L54.5883 17.14ZM69.3023 17.7L69.9223 4.9L70.8223 4L80.7023 3.7L81.6623 4.52L82.5023 11.28L81.4623 12.32L79.8823 12.16L82.6223 17L81.0023 17.92L77.6223 11.92L73.3823 11.48L73.5823 9.6L80.4823 10.32L79.9023 5.6L71.7623 5.88L71.1823 17.8L69.3023 17.7ZM94.1372 11.86L94.4772 13.74L88.7572 14.7L87.0372 18.48L85.3172 17.72L91.9772 3.16L93.6972 3.14L99.7772 15.92L98.0772 16.74L92.8372 5.78L89.7172 12.62L94.1372 11.86ZM103.177 17.62L103.857 3.88L105.757 3.98L105.057 17.72L103.177 17.62Z" fill="#D9D9D9"/>
<path d="M8.6 34.32V35H7.46L4.95 31.27V34.32H5.6V35H3.5V34.32H4.13V28.18H3.5V27.5H5.6V28.18H4.91V30.97L7.46 27.5H8.54V28.18H7.87L5.79 31.1L7.96 34.32H8.6ZM13.8471 27.5C14.2538 27.5 14.5471 27.6133 14.7271 27.84C14.9138 28.06 15.0071 28.39 15.0071 28.83V33.64C15.0071 34.12 14.9271 34.4667 14.7671 34.68C14.6071 34.8933 14.3171 35 13.8971 35H11.9771C11.3371 35 10.9604 34.76 10.8471 34.28C10.8071 34.1333 10.7871 33.97 10.7871 33.79V28.83C10.7871 28.3833 10.8604 28.06 11.0071 27.86C11.1738 27.62 11.4704 27.5 11.8971 27.5H13.8471ZM11.5871 34.32H14.2071V28.18H11.5871V34.32ZM17.2137 28.18V27.5H18.7537L20.8737 31.87L22.9737 27.5H24.5137V28.18H23.8837V34.32H24.5137V35H22.4137V34.32H23.0637V29.17L21.1737 33.06H20.5437L18.6637 29.14V34.32H19.3137V35H17.2137V34.32H17.8437V28.18H17.2137ZM30.9072 31.7L30.0172 28.18L29.1272 31.7H30.9072ZM32.9772 34.32V35H31.0272V34.32H31.5672L31.0672 32.33H28.9672L28.4672 34.32H29.0172V35H27.0672V34.32H27.6972L29.4372 27.5H30.6172L32.3272 34.32H32.9772ZM40.4234 28.18V34.32H41.0534V35H38.9934V34.32H39.6034V31.46H36.8234V34.32H37.4334V35H35.3734V34.32H36.0034V28.18H35.3734V27.5H37.4334V28.18H36.8234V30.79H39.6034V28.18H38.9934V27.5H41.0534V28.18H40.4234ZM46.5531 28.18H45.7731V27.5H48.7031V34.32H49.4931V36.5H48.6931V35H44.3031V36.5H43.5031V34.32H44.3731L46.5531 28.18ZM47.8931 28.18H47.3331L45.1731 34.32H47.8931V28.18ZM55.5349 31.7L54.6449 28.18L53.7549 31.7H55.5349ZM57.6049 34.32V35H55.6549V34.32H56.1949L55.6949 32.33H53.5949L53.0949 34.32H53.6449V35H51.6949V34.32H52.3249L54.0649 27.5H55.2449L56.9549 34.32H57.6049ZM67.2373 27.5V28.18H66.5973V34.32H68.8973V28.18H68.2473V27.5H70.3273V28.18H69.6973V34.32H71.9873V28.18H71.3373V27.5H73.4373V28.18H72.7973V34.32H73.4373V35H65.1473V34.32H65.7873V28.18H65.1473V27.5H67.2373ZM79.7744 30.07V32.17H79.0944V31.46H77.6844V34.32H80.2444V33.15H80.9244V35H76.2344V34.32H76.8644V28.18H76.2344V27.5H80.9244V29.35H80.2444V28.18H77.6844V30.78H79.0944V30.07H79.7744ZM87.1442 33.15H87.8242V35H84.7542C84.1942 35 83.8542 34.78 83.7342 34.34C83.6942 34.2133 83.6742 34.0767 83.6742 33.93V28.58C83.6742 28.0933 83.8442 27.7667 84.1842 27.6C84.3109 27.5333 84.4676 27.5 84.6542 27.5H87.8242V29.35H87.1442V28.18H84.4942V34.32H87.1442V33.15ZM91.4219 34.32H92.0519V28.18H90.7919V29.36H90.0719V27.5H94.8619V29.36H94.1319V28.18H92.8719V34.32H93.5219V35H91.4219V34.32ZM102.265 34.32H102.915V35H101.445V29.45L98.4448 35H97.2648V34.32H97.9048V28.18H97.2648V27.5H98.7148V32.99L101.685 27.5H102.915V28.18H102.265V34.32Z" fill="#D9D9D9"/>
</svg>
